PathFileType	4	(X/Y/Z)	Patient4_TMGait_0pt6_02_left_37.trc.trc
DataRate	CameraRate	NumFrames	NumMarkers	Units	OrigDataRate	OrigDataStartFrame	OrigNumFrames
82.352941176470	82.352941176470	5	33	mm	82.352941176470	1	       141
Frame#	Time	Sacral			L.Shoulder			Chest			R.Shoulder			Neck			R.ASIS			L.ASIS			R.Thigh.Superior			R.Thigh.Lateral			R.Thigh.Inferior			R.Patella			L.Thigh.Superior			L.Thigh.Lateral			L.Thigh.Inferior			L.Patella			L.Shank.Superior			L.Shank.Lateral			L.Shank.Inferior			R.Shank.Superior			R.Shank.Lateral			R.Shank.Inferior			R.Heel			R.Midfoot.Superior			R.Midfoot.Lateral			R.Toe			L.Heel			L.Midfoot.Lateral			L.Midfoot.Superior			L.Toe			L.Elbow			L.Wrist			R.Elbow			R.Wrist			
		X1	Y1	Z1	X2	Y2	Z2	X3	Y3	Z3	X4	Y4	Z4	X5	Y5	Z5	X6	Y6	Z6	X7	Y7	Z7	X8	Y8	Z8	X9	Y9	Z9	X10	Y10	Z10	X11	Y11	Z11	X12	Y12	Z12	X13	Y13	Z13	X14	Y14	Z14	X15	Y15	Z15	X16	Y16	Z16	X17	Y17	Z17	X18	Y18	Z18	X19	Y19	Z19	X20	Y20	Z20	X21	Y21	Z21	X22	Y22	Z22	X23	Y23	Z23	X24	Y24	Z24	X25	Y25	Z25	X26	Y26	Z26	X27	Y27	Z27	X28	Y28	Z28	X29	Y29	Z29	X30	Y30	Z30	X31	Y31	Z31	X32	Y32	Z32	X33	Y33	Z33	

1	45.160000000000	825.539862156146	1021.332905804452	494.895473994023	1035.841451764560	1420.375216039797	284.089431066586	1140.938082302688	1347.951000751726	442.397198281292	1076.370585958776	1443.101889992513	613.187782972502	1055.430569614991	1488.968080572762	428.979119053534	1051.562466456794	937.764685924221	600.298276139863	1026.802739728352	960.266998919838	327.517207636563	1091.680432075001	738.871866327187	572.981676857178	1006.740210171512	632.529351423824	628.223803753212	1083.273709903363	580.568909253135	546.564160624427	1082.304526732102	490.436792528351	550.375736420211	1099.792978543712	777.651926278895	361.198789294172	1052.368775644004	654.650794834249	281.522931653299	1150.405648060582	584.693593701755	346.329724038260	1157.138973577940	492.591651164347	337.989104325982	1082.734809384259	432.375013321762	327.939236535993	938.512861272555	409.111220137464	274.350568111028	907.343922843576	282.126732343461	327.460783606889	1049.620064174823	403.336809374530	556.799883664879	973.897214579044	302.566351466272	617.216652325900	1011.217812315167	206.719188923358	552.613874913034	870.012752594615	44.411154321899	521.173164094717	1041.854769766875	97.230380080637	558.711932689040	952.014907824465	37.493831902017	596.554693184948	1160.880243216609	40.002985043072	589.476112801107	710.582459316629	252.864137874437	356.787311575279	759.376968500632	189.923128861682	282.272339096950	863.179667279038	177.038511736802	307.286623893437	915.226723919206	47.926950351809	291.130137301702	932.641405658756	1072.719360472093	194.355943732458	976.068760974484	813.550608347593	197.233282615864	1108.402659613225	1138.812645708742	802.849743903605	1326.645759035588	1046.174666595036	708.243622304198	
2	45.172142857143	824.884086763534	1022.087588671487	496.088093433779	1034.872569794769	1420.712398701417	284.957982017338	1140.612714308876	1348.080891169356	442.667996903165	1077.361132540750	1443.631374856995	613.697257420265	1055.229769532798	1489.181980678365	429.823560225277	1050.843638669786	937.806026765042	601.134561348518	1025.557729090192	961.106915096037	328.309527303673	1088.986802241441	738.062461631477	572.848683674895	1002.967627200601	632.573627184452	628.471501305429	1078.456561599692	579.822527677031	546.515102977697	1076.426107570368	489.806891728838	550.172069076722	1101.369359404432	782.223784744708	362.703777257292	1057.460450807770	658.460152988210	282.445670348494	1156.852893882285	590.945615838630	347.511148646187	1166.219606686649	499.319206741242	339.278426161784	1094.404645295217	436.799638333444	328.929284698850	951.497778369096	407.484066957071	275.475331148983	926.339564794006	279.345246979904	328.100498187602	1043.450040096727	402.936750923079	556.802373223322	967.284607809033	302.510794497257	617.278488589294	1004.072863430931	206.490104917538	552.594599224886	862.227506840671	44.364377160653	521.182429084438	1034.067145903695	97.207020514219	558.759881254184	944.265788677185	37.490117162179	596.630143041229	1153.084312970246	40.019123386459	589.533912520510	731.609271269627	239.372395782566	357.988470868896	783.267363675417	180.975043820471	282.301619666880	887.348672990442	173.853711527673	306.929898293554	946.518210135009	48.893027275232	288.285399985646	925.609901347453	1074.480354634971	198.126022314121	963.019762710699	814.684061404497	201.787115993791	1117.882254813932	1140.188580542269	801.349375165049	1337.161396036757	1060.445598256751	701.662819640252	
3	45.184285714286	824.247926936763	1022.825798442112	497.278933034015	1033.882072560502	1421.051392603497	285.815491570079	1140.289025422212	1348.212250626219	442.911145161251	1078.352774344844	1444.135973016023	614.191672305847	1055.017324576230	1489.391562791158	430.650686227701	1050.155537343913	937.818426773090	601.903450200906	1024.312940352231	961.940806752723	329.054478023176	1086.292620161447	737.242216373829	572.645172001651	999.243490187320	632.615518371720	628.707626867487	1073.660075000383	579.073355311913	546.433676054235	1070.577790866041	489.183428776339	549.961332093641	1102.843474552366	786.699187524225	364.150897728678	1062.353636924289	662.175882965539	283.359081005936	1163.028904557273	597.032117951047	348.676859240014	1174.963437273128	505.905543569375	340.523716978423	1105.788233281674	441.124962722036	329.866529813026	964.297812784777	405.635328034225	276.551245061279	945.310115305186	276.392719958790	328.669641366940	1037.322268534210	402.533034170835	556.790212371055	960.728325635468	302.445655128170	617.334837291756	996.986799611574	206.257711834360	552.568013545903	854.522816002878	44.308807850657	521.198241935132	1026.350435576870	97.179300922568	558.797705932893	936.591828058542	37.482184340060	596.706930746600	1145.365362292181	40.041578770733	589.586645072465	752.827400282348	225.606352065175	359.109735032975	807.291767108379	171.782193722709	282.270710017154	911.577495881780	170.488217438100	306.522292678477	977.864646317595	49.808389393375	285.433077467279	918.725148915058	1076.217756068092	201.847949216949	950.255295550578	815.832980872005	206.248082658268	1127.162152045898	1141.497236679199	799.769120864553	1347.335310812692	1074.539645815135	695.091974482299	
4	45.196428571429	823.653337060217	1023.518132172212	498.460338230084	1032.852252968037	1421.384900039319	286.651652949469	1139.969474986825	1348.334971341154	443.099954615976	1079.346580983830	1444.579468017673	614.655250174991	1054.785400468109	1489.582490758780	431.446152053242	1049.534335187070	937.766531924135	602.544885638158	1023.080542661492	962.749466787745	329.702681755864	1083.602728028286	736.390488136274	572.313294311662	995.612012565588	632.638454416128	628.917151585972	1068.906179050000	578.305697284932	546.289150468147	1064.787430141587	488.556330749578	549.732157742756	1104.107750939950	790.933872275923	365.479158662231	1066.833341832279	665.670602802173	284.228406405372	1168.630167201946	602.739917523501	349.808968773639	1183.015353241568	512.192387654981	341.692466035870	1116.602283660633	445.247811773670	330.711237273583	976.823493361020	403.346038932295	277.495036924304	964.302886840420	273.150446835134	329.113399854456	1031.262825388421	402.108496169462	556.744685613834	954.261002806927	302.357304607131	617.377513737220	989.981884326286	206.010254162017	552.523974442920	846.923912136747	44.238699169973	521.225843288453	1018.724028346373	97.143076502218	558.817730089481	929.014061427435	37.466148861411	596.785199218769	1137.746222218066	40.074268251366	589.630625676578	774.565811184795	211.351340158311	360.040101387652	831.749410006331	162.180187634445	282.127219192791	936.030243276927	166.853287104323	306.048410797855	1009.418131255516	50.767907762366	282.673476299286	912.132143168155	1077.898274351933	205.465629768614	938.056134887091	816.998032094378	210.517554369551	1136.084468766437	1142.651981611415	797.993998197531	1356.848287771483	1088.288096054207	688.493567140420	
5	45.208571428571	823.121468442629	1024.133110092842	499.624969077816	1031.770527703225	1421.702731095746	287.459013671621	1139.656098703309	1348.434759544480	443.213950484038	1080.343057544192	1444.925248900346	615.076503856427	1054.529489463592	1489.737288553517	432.201711291676	1049.009600606285	937.620884284274	603.011964283329	1021.877057094688	963.510425499589	330.213396605097	1080.924983759919	735.487653449357	571.814127287418	992.107205673072	632.622928691349	629.087919960323	1064.213738638276	577.502397035521	546.059560937014	1059.077832685362	487.910943806525	549.475638042382	1105.074360836011	794.790743493512	366.640877754903	1070.721013328688	668.823742061897	285.020230389039	1173.400323243275	607.871110890597	350.896864821054	1190.082863445018	518.038048834120	342.766510217966	1126.618402943442	449.079780843816	331.439824897219	989.047552513662	400.441248610585	278.220309185082	983.385321596397	269.550865960119	329.391774780972	1025.288579467349	401.644184907420	556.651216359179	947.899682951652	302.233453548028	617.399304414352	983.061547472540	205.735295631737	552.454300952689	839.428704600705	44.150775054764	521.267945245417	1011.182169855302	97.094579390485	558.813463177371	921.528558314001	37.439325207538	596.864947962295	1130.224145157224	40.119370781921	589.664496058402	797.148490185043	196.475215809143	360.662044689793	856.953611652610	152.085745394357	281.822189002751	960.881849457260	162.926294868596	305.511502799336	1041.336901045954	51.917980087565	280.140550562322	905.948016374257	1079.489435561369	208.928109128102	926.645194028378	818.169487080408	214.515142690612	1144.547005479738	1143.575909081419	795.924036493977	1365.457359061727	1101.554836939310	681.820658193152	
